<?xml version="1.0" encoding="UTF-8"?>
<svg width="920px" height="920px" viewBox="0 0 920 920" version="1.1" xmlns="http://www.w3.org/2000/svg" xmlns:xlink="http://www.w3.org/1999/xlink">
    <!-- Generator: Sketch 50.2 (55047) - http://www.bohemiancoding.com/sketch -->
    <title>people copy</title>
    <desc>Created with Sketch.</desc>
    <defs></defs>
    <g id="people-copy" stroke="none" stroke-width="1" fill="none" fill-rule="evenodd">
        <g id="Group-2" transform="translate(60.000000, 200.000000)" fill="#2B9CD8">
            <g id="Group">
                <path d="M225.194893,0 L224.529044,0.0219726838 L223.866249,0 C154.343012,0 97.9779382,57.9199946 97.9779382,129.375162 C97.9779382,200.833469 154.343012,258.753464 223.866249,258.753464 L224.529044,258.731491 L225.194893,258.753464 C294.71813,258.753464 351.083204,200.833469 351.083204,129.375162 C351.083204,57.9199946 294.71813,0 225.194893,0" id="Fill-50"></path>
                <path d="M142.024315,281.246536 L308.358143,281.246536 C373.748812,281.246536 429.026592,329.680544 437.619222,394.5042 L447.920105,472.215081 C450.656888,492.861641 437.355821,512.239856 417.105682,517.108359 C353.628413,532.369453 289.862181,540 225.806986,540 C161.659435,540 97.5093483,532.347433 33.356726,517.0423 L33.356726,517.0423 C13.0717228,512.20283 -0.267049499,492.805965 2.47330006,472.132496 L12.7632359,394.5042 C21.3558664,329.680544 76.6336456,281.246536 142.024315,281.246536 Z" id="Rectangle-100-Copy"></path>
            </g>
            <path d="M488.090341,511.916393 C489.344396,506.938033 489.670191,501.64694 488.907627,496.276138 L476.531706,409.111453 C472.304606,379.339622 459.143788,352.780952 439.994078,331.99169 C460.314196,312.00883 488.142871,299.849624 518.493193,299.849624 L679.754859,299.849624 C735.555905,299.849624 782.832972,340.951654 790.592716,396.210526 L799.660595,460.784925 C802.236233,479.126619 790.329948,496.383108 772.268445,500.486003 C714.999594,513.495334 657.469789,520 599.67903,520 C562.483746,520 525.287516,517.305464 488.090341,511.916393 Z M599.127329,40 C661.791024,40 712.594813,91.4844396 712.594813,155.000144 C712.594813,218.518639 661.791024,270.003079 599.127329,270.003079 L598.527176,269.983548 L597.929776,270.003079 C535.266081,270.003079 484.462292,218.518639 484.462292,155.000144 C484.462292,91.4844396 535.266081,40 597.929776,40 L598.527176,40.0195313 L599.127329,40 Z" id="Combined-Shape"></path>
        </g>
    </g>
</svg>