<?xml version="1.0" encoding="UTF-8"?>
<svg width="920px" height="920px" viewBox="0 0 920 920" version="1.1" xmlns="http://www.w3.org/2000/svg" xmlns:xlink="http://www.w3.org/1999/xlink">
    <!-- Generator: Sketch 50.2 (55047) - http://www.bohemiancoding.com/sketch -->
    <title>lighton copy</title>
    <desc>Created with Sketch.</desc>
    <defs>
        <path d="M388.261494,356.294543 L380.152283,364.007918 L380.152283,364.817999 C340.398289,404.899374 312.713818,440.578137 311.167411,504.997148 L311.167411,551.206959 C311.167411,553.742863 308.866658,555.820896 306.000146,555.820896 L226.303571,555.820896 L146.606997,555.820896 C143.778202,555.820896 141.439732,553.742863 141.439732,551.206959 L141.439732,504.997148 C139.893324,440.578137 112.246571,404.899374 72.4548601,364.817999 L72.4548601,364.007918 L64.3456488,356.294543 C22.8566607,316.811923 0,264.825886 0,209.881295 C0,94.1454441 101.534869,0 226.303571,0 C351.109991,0 452.607143,94.1454441 452.607143,209.881295 C452.607143,264.825886 429.750482,316.811923 388.261494,356.294543 Z M230.417755,50.1492537 C130.554337,50.1492537 49.2857143,134.651075 49.2857143,238.474342 C49.2857143,248.893761 57.7135714,257.357431 68.0811735,257.357431 C78.4822194,257.357431 86.9100765,248.893761 86.9100765,238.474342 C86.9100765,155.422472 151.289541,87.8479912 230.417755,87.8479912 C240.818801,87.8479912 249.213214,79.418041 249.213214,68.9986225 C249.213214,58.579204 240.818801,50.1492537 230.417755,50.1492537 Z" id="path-1"></path>
        <path d="M294.303717,685.866484 C303.467339,685.866484 308.851804,696.926579 302.631242,703.670539 C284.404329,723.598941 258.418436,736.142707 229.322263,736.142707 C200.226089,736.142707 174.240196,723.598941 156.013283,703.670539 C149.792722,696.926579 155.177186,685.866484 164.340809,685.866484 L294.303717,685.866484 Z M141.542117,610.600516 C134.485459,610.600516 128.8,604.90187 128.8,597.820712 C128.8,590.806993 134.485459,585.074627 141.542117,585.074627 L316.988699,585.074627 C324.011913,585.074627 329.697372,590.806993 329.697372,597.820712 C329.697372,604.90187 324.011913,610.600516 316.988699,610.600516 L141.542117,610.600516 Z M316.975321,636.001642 C323.998536,636.001642 329.683995,641.700289 329.683995,648.747727 C329.683995,655.795165 323.998536,661.527532 316.975321,661.527532 L141.52874,661.527532 C134.505526,661.527532 128.820066,655.795165 128.820066,648.747727 C128.820066,641.700289 134.505526,636.001642 141.52874,636.001642 L316.975321,636.001642 Z" id="path-3"></path>
    </defs>
    <g id="lighton-copy" stroke="none" stroke-width="1" fill="none" fill-rule="evenodd">
        <g id="Group-3" transform="translate(240.000000, 80.000000)">
            <mask id="mask-2" fill="white">
                <use xlink:href="#path-1"></use>
            </mask>
            <use id="Combined-Shape" fill="#2B9CD8" xlink:href="#path-1"></use>
            <mask id="mask-4" fill="white">
                <use xlink:href="#path-3"></use>
            </mask>
            <use id="Mask" fill="#2B9CD8" xlink:href="#path-3"></use>
        </g>
    </g>
</svg>