<?xml version="1.0" encoding="UTF-8"?>
<svg width="920px" height="920px" viewBox="0 0 920 920" version="1.1" xmlns="http://www.w3.org/2000/svg" xmlns:xlink="http://www.w3.org/1999/xlink">
    <!-- Generator: Sketch 50.2 (55047) - http://www.bohemiancoding.com/sketch -->
    <title>lock-outline copy</title>
    <desc>Created with Sketch.</desc>
    <defs></defs>
    <g id="lock-outline-copy" stroke="none" stroke-width="1" fill="none" fill-rule="evenodd">
        <path d="M636.666667,380.324301 L647.777778,380.324301 C686.666667,380.324301 718.333333,410.765379 718.333333,448.14916 L718.333333,765.911291 C718.333333,773.388047 712.222222,779.262641 704.444444,779.262641 L235.555556,779.262641 C227.777778,779.262641 221.666667,773.388047 221.666667,765.911291 L221.666667,448.14916 C221.666667,410.765379 253.333333,380.324301 292.222222,380.324301 L303.333333,380.324301 L303.333333,223.312424 C303.333333,177.38378 342.222222,140 390,140 L550,140 C597.777778,140 636.666667,177.38378 636.666667,223.312424 L636.666667,380.324301 Z M581.111111,380.324301 L581.111111,223.312424 C581.111111,206.75675 567.222222,193.4054 550,193.4054 L390,193.4054 C372.777778,193.4054 358.888889,206.75675 358.888889,223.312424 L358.888889,380.324301 L581.111111,380.324301 Z M530.277778,540.540502 C530.277778,503.423749 494.166667,474.584833 453.888889,484.464832 C433.333333,489.805372 416.666667,506.094019 411.666667,525.854017 C404.166667,554.692933 419.444444,581.395633 443.888889,592.610767 C450.555556,595.815091 453.611111,603.291847 450.555556,609.967522 L418.333333,680.462651 C414.166667,689.274542 421.111111,699.154541 431.111111,699.154541 L508.888889,699.154541 C519.166667,699.154541 525.833333,689.274542 521.666667,680.462651 L489.444444,609.967522 C486.388889,603.291847 489.444444,595.815091 496.111111,592.610767 C516.388889,583.264822 530.277778,563.504824 530.277778,540.540502 Z" id="Combined-Shape" fill="#2B9CD8" fill-rule="nonzero"></path>
    </g>
</svg>