<?xml version="1.0" encoding="UTF-8"?>
<svg width="300px" height="100px" viewBox="0 0 300 100" version="1.1" xmlns="http://www.w3.org/2000/svg" xmlns:xlink="http://www.w3.org/1999/xlink">
    <!-- Generator: Sketch 49.3 (51167) - http://www.bohemiancoding.com/sketch -->
    <title>Xfinity_logo_2017_wht_RGB Copy</title>
    <desc>Created with Sketch.</desc>
    <defs>
        <polygon id="path-1" points="0 0 299.334641 0 299.334641 99.6541935 0 99.6541935"></polygon>
    </defs>
    <g id="Page-1" stroke="none" stroke-width="1" fill="none" fill-rule="evenodd">
        <g id="Xfinity_logo_2017_wht_RGB-Copy">
            <mask id="mask-2" fill="white">
                <use xlink:href="#path-1"></use>
            </mask>
            <g id="Clip-2"></g>
            <path d="M66.8143791,35.1690323 L66.8143791,77.7780645 L77.4509804,77.7780645 L77.4509804,35.1690323 L91.0823529,35.1690323 L91.0823529,25.7909677 L77.4509804,25.7909677 L77.4509804,21.9174194 C77.4509804,13.0490323 82.820915,10.0929032 88.0875817,10.0929032 C89.4300654,10.0929032 90.669281,10.2967742 91.7019608,10.6025806 L93.8705882,1.32645161 C92.5281046,0.816774194 90.3594771,0.307096774 87.2614379,0.307096774 C74.0431373,0.307096774 66.8143791,9.99096774 66.8143791,21.7135484 L66.8143791,25.7909677 L61.2379085,25.7909677 L54.5254902,35.1690323 L66.8143791,35.1690323 Z M214.281046,59.3277419 C214.281046,70.6425806 221.303268,78.6954839 233.901961,78.6954839 C237,78.6954839 239.581699,78.2877419 241.647059,77.676129 L239.478431,68.5019355 C238.135948,68.8077419 236.48366,69.0116129 234.624837,69.0116129 C229.461438,69.0116129 224.917647,66.2593548 224.917647,59.123871 L224.917647,35.1690323 L239.788235,35.1690323 L235.45098,25.7909677 L224.917647,25.7909677 L224.917647,4.89419355 L214.281046,9.48129032 L214.281046,25.7909677 L203.024837,25.7909677 L203.024837,35.1690323 L214.281046,35.1690323 L214.281046,59.3277419 Z M122.888889,25.7909677 L122.888889,77.7780645 L133.52549,77.7780645 L133.52549,42.1006452 C136.830065,37.5135484 141.580392,34.6593548 147.466667,34.6593548 C155.315033,34.6593548 160.684967,39.5522581 160.684967,49.3380645 L160.684967,72.7832258 C160.684967,75.7393548 162.750327,77.7780645 165.64183,77.7780645 L171.321569,77.7780645 L171.321569,47.5032258 C171.321569,34.0477419 162.647059,24.6696774 150.048366,24.6696774 C143.335948,24.6696774 137.759477,27.0141935 133.52549,30.8877419 L133.52549,25.7909677 L122.888889,25.7909677 Z M260.854902,96.1264516 L299.373856,25.7909677 L293.59085,25.7909677 C290.079739,25.7909677 287.394771,26.8103226 285.94902,29.4606452 L270.768627,57.2890323 L257.653595,29.4606452 C256.311111,26.7083871 253.522876,25.7909677 250.011765,25.7909677 L244.435294,25.7909677 L264.675817,68.196129 L247.016993,100 L252.8,100 C256.414379,100 259.305882,98.8787097 260.854902,96.1264516 Z M99.5503268,77.7780645 L110.186928,77.7780645 L110.186928,25.7909677 L99.5503268,25.7909677 L99.5503268,77.7780645 Z M183.920261,77.7780645 L194.556863,77.7780645 L194.556863,25.7909677 L183.920261,25.7909677 L183.920261,77.7780645 Z M33.4588235,50.6632258 L52.2535948,25.7909677 L44.4052288,25.7909677 C40.8941176,25.7909677 38.6222222,27.0141935 36.7633987,29.4606452 L26.8496732,42.6103226 L17.2457516,29.4606452 C15.3869281,27.0141935 13.1150327,25.7909677 9.60392157,25.7909677 L1.75555556,25.7909677 L20.3437908,50.6632258 L0,77.7780645 L7.43529412,77.7780645 C10.9464052,77.7780645 13.2183007,76.5548387 15.0771242,74.1083871 L26.8496732,58.716129 L54.4222222,96.3303226 C56.1777778,98.7767742 58.5529412,100 62.0640523,100 L70.1189542,100 L33.4588235,50.6632258 Z" id="Fill-1" fill="#FFFFFF" mask="url(#mask-2)"></path>
        </g>
    </g>
</svg>