<?xml version="1.0" encoding="UTF-8"?>
<svg width="920px" height="920px" viewBox="0 0 920 920" version="1.1" xmlns="http://www.w3.org/2000/svg" xmlns:xlink="http://www.w3.org/1999/xlink">
    <!-- Generator: Sketch 50.2 (55047) - http://www.bohemiancoding.com/sketch -->
    <title>thermostat copy</title>
    <desc>Created with Sketch.</desc>
    <defs></defs>
    <g id="thermostat-copy" stroke="none" stroke-width="1" fill="none" fill-rule="evenodd">
        <g id="Group-4" transform="translate(100.000000, 100.000000)" fill="#2B9CD8">
            <g id="Thermostat">
                <path d="M171,0 L547.2,0 C641.640692,-1.73484737e-14 718.2,76.5593078 718.2,171 L718.2,547.2 C718.2,641.640692 641.640692,718.2 547.2,718.2 L171,718.2 C76.5593078,718.2 1.15656491e-14,641.640692 0,547.2 L0,171 C-1.15656491e-14,76.5593078 76.5593078,1.73484737e-14 171,0 Z M137.75035,110.372727 C122.630106,110.372727 110.372727,122.630106 110.372727,137.75035 L110.372727,580.44965 C110.372727,595.569894 122.630106,607.827273 137.75035,607.827273 L580.44965,607.827273 C595.569894,607.827273 607.827273,595.569894 607.827273,580.44965 L607.827273,137.75035 C607.827273,122.630106 595.569894,110.372727 580.44965,110.372727 L137.75035,110.372727 Z" id="Combined-Shape"></path>
                <path d="M152.345455,136.8 L565.854545,136.8 C574.440063,136.8 581.4,143.759937 581.4,152.345455 L581.4,563.903376 C581.4,572.488894 574.440063,579.448831 565.854545,579.448831 L152.345455,579.448831 C143.759937,579.448831 136.8,572.488894 136.8,563.903376 L136.8,152.345455 C136.8,143.759937 143.759937,136.8 152.345455,136.8 Z M182.37995,280.0653 L182.37995,298.16565 L268.9145,298.16565 C251.31005,316.01805 208.66265,375.52605 200.4803,445.2 L224.03555,445.2 C235.1933,355.19415 279.8243,309.57135 291.7259,296.9259 L291.7259,280.0653 L182.37995,280.0653 Z M368.83835,277.5858 C331.3979,277.5858 310.5701,303.12465 310.5701,360.4011 C310.5701,404.0403 324.20735,447.1836 368.83835,447.1836 C405.7829,447.1836 427.1066,420.65295 427.1066,360.4011 C427.1066,317.2578 412.2296,277.5858 368.83835,277.5858 Z M516.190909,281.372727 L483.463636,314.1 L548.918182,314.1 L516.190909,281.372727 Z M516.190909,438.463636 L548.918182,405.736364 L483.463636,405.736364 L516.190909,438.463636 Z" id="Combined-Shape"></path>
                <path d="M370,430 C400,430 408.000488,400 408.000488,360 C408.000488,320 400,295.999756 370,295.999756 C340,295.999756 330,320 330,360 C330,400 340,430 370,430 Z" id="Oval"></path>
            </g>
        </g>
    </g>
</svg>