<?xml version="1.0" encoding="UTF-8"?>
<svg width="300px" height="294px" viewBox="0 0 300 294" version="1.1" xmlns="http://www.w3.org/2000/svg" xmlns:xlink="http://www.w3.org/1999/xlink">
    <!-- Generator: Sketch 50.2 (55047) - http://www.bohemiancoding.com/sketch -->
    <title>Artboard 7</title>
    <desc>Created with Sketch.</desc>
    <defs></defs>
    <g id="Artboard-7" stroke="none" stroke-width="1" fill="none" fill-rule="evenodd">
        <path d="M199.539597,248.705533 C234.482322,263.570196 264.829304,224.305243 269.425048,207.084475 C272.99807,193.695962 259.917767,180.307448 230.184141,166.918934 L230.18414,166.918936 C228.168268,166.011225 225.816553,166.285626 224.063814,167.633062 L186.010319,196.887064 C185.010383,197.655774 183.63642,197.71696 182.572114,197.040174 C162.561377,184.315475 147.960552,173.78989 138.769639,165.463418 C129.309114,156.892691 117.155122,143.019005 102.307665,123.84236 L122.415377,102.201154 C128.387087,95.774017 128.855324,85.9778275 123.523844,79.0104223 C108.190788,58.9725309 98.0802307,47.1601163 93.1921714,43.5731783 C81.0381799,34.6543803 23.3067203,64.383707 48.137948,114.336412 C72.9691757,164.289116 164.596871,233.840869 199.539597,248.705533 Z" id="Oval-9" stroke="#99A4AB" stroke-width="12" fill="#000000"></path>
    </g>
</svg>